# xmcd
#
# Track frame offsets: 
#        150
#        18580
#        39187
#        61875
#        84150
#        107410
#        128392
#        149250
#        173855
#        195655
#        214937
#        234027
#        256310
#        277587
#        298350
#        320197
#
# Disc length: 4494 seconds
#
# Revision: 3
# Processed by: cddbd v1.5.1PL2 Copyright (c) Steve Scherf et al.
# Submitted via: ExactAudioCopy v0.95b3
#
DISCID=d7118c10
DTITLE=Whitney Houston - Greatest Hits
DYEAR=1993
DGENRE=Pop
TTITLE0=Saving All My Love For You
TTITLE1=How Will I Know
TTITLE2=Greatest Love Of All
TTITLE3=I Wanna Dance With Somebody
TTITLE4=Didn't We Almost Have It All
TTITLE5=So Emotional
TTITLE6=Where Do Broken Hearts Go
TTITLE7=Love Will Save The Day
TTITLE8=One Moment In Time
TTITLE9=I'm Your Baby Tonight
TTITLE10=All The Man That I Naeed
TTITLE11=We Don't Know
TTITLE12=My Name Is Not Susan
TTITLE13=I Will Always Love You
TTITLE14=I'm Every Woman
TTITLE15=Something In Common
EXTD=
EXTT0=
EXTT1=
EXTT2=
EXTT3=
EXTT4=
EXTT5=
EXTT6=
EXTT7=
EXTT8=
EXTT9=
EXTT10=
EXTT11=
EXTT12=
EXTT13=
EXTT14=
EXTT15=
PLAYORDER=
